<svg width="16" height="16" viewBox="0 0 16 16" fill="none" xmlns="http://www.w3.org/2000/svg">
<path fill-rule="evenodd" clip-rule="evenodd" d="M3 6.03338C3 3.25064 5.25064 1 8.03338 1C10.8161 1 13.0668 3.25064 13.0668 6.03338C13.0668 9.03184 9.88855 13.1664 8.58706 14.7411C8.29944 15.0863 7.77453 15.0863 7.4869 14.7411C6.17822 13.1664 3 9.03184 3 6.03338ZM6.23575 6.03339C6.23575 7.02568 7.04109 7.83102 8.03339 7.83102C9.02568 7.83102 9.83102 7.02568 9.83102 6.03339C9.83102 5.04109 9.02568 4.23575 8.03339 4.23575C7.04109 4.23575 6.23575 5.04109 6.23575 6.03339Z" fill="#7D28F7"/>
</svg>
