<svg width="16" height="16" viewBox="0 0 16 16" fill="none" xmlns="http://www.w3.org/2000/svg">
<path fill-rule="evenodd" clip-rule="evenodd" d="M13.4444 1.55556H12.6667V0.777778C12.6667 0.35 12.3167 0 11.8889 0C11.4611 0 11.1111 0.35 11.1111 0.777778V1.55556H4.88889V0.777778C4.88889 0.35 4.53889 0 4.11111 0C3.68333 0 3.33333 0.35 3.33333 0.777778V1.55556H2.55556C1.69222 1.55556 1.00778 2.25556 1.00778 3.11111L1 14C1 14.8556 1.69222 15.5556 2.55556 15.5556H13.4444C14.3 15.5556 15 14.8556 15 14V3.11111C15 2.25556 14.3 1.55556 13.4444 1.55556ZM13.4444 13.2222C13.4444 13.65 13.0944 14 12.6667 14H3.33333C2.90556 14 2.55556 13.65 2.55556 13.2222V5.44444H13.4444V13.2222ZM5.66667 8.55556V7H4.11111V8.55556H5.66667ZM7.22222 7H8.77778V8.55556H7.22222V7ZM11.8889 7H10.3333V8.55556H11.8889V7Z" fill="#444444" fill-opacity="0.7"/>
</svg>
