<svg width="16" height="16" viewBox="0 0 16 16" fill="none" xmlns="http://www.w3.org/2000/svg">
<path d="M8 0C6.41775 0 4.87103 0.469192 3.55544 1.34824C2.23985 2.22729 1.21447 3.47672 0.608967 4.93853C0.00346632 6.40034 -0.15496 8.00887 0.153721 9.56072C0.462403 11.1126 1.22433 12.538 2.34315 13.6569C3.46197 14.7757 4.88743 15.5376 6.43928 15.8463C7.99113 16.155 9.59966 15.9965 11.0615 15.391C12.5233 14.7855 13.7727 13.7602 14.6518 12.4446C15.5308 11.129 16 9.58225 16 8C15.9973 5.8791 15.1535 3.84586 13.6538 2.34616C12.1541 0.846462 10.1209 0.00273077 8 0V0ZM7.31198 1.92303H8.68803V4.10062H7.31198V1.92303ZM4.10063 8.68802H1.92303V7.31197H4.10063V8.68802ZM4.75597 5.72952L3.20792 4.18147L4.18147 3.20791L5.72952 4.75597L4.75597 5.72952ZM8 10.0176C7.69791 10.0171 7.39978 9.94881 7.12762 9.81769C6.85546 9.68657 6.61621 9.49602 6.42754 9.26008C6.23887 9.02414 6.10559 8.74885 6.03754 8.45452C5.96948 8.16018 5.96839 7.85433 6.03435 7.55952C6.1003 7.26471 6.23161 6.98847 6.4186 6.75119C6.60558 6.51392 6.84346 6.32166 7.11467 6.1886C7.38589 6.05555 7.68353 5.9851 7.98561 5.98245C8.2877 5.9798 8.58652 6.04502 8.86003 6.17329L11.8185 3.21479L12.7921 4.18835L9.82671 7.13997C9.97313 7.44747 10.0391 7.7871 10.0185 8.12706C9.99787 8.46702 9.8913 8.79618 9.70877 9.08372C9.52625 9.37126 9.27373 9.60778 8.97487 9.77112C8.67601 9.93445 8.34058 10.0193 8 10.0176V10.0176ZM14.077 8.68802H11.8994V7.31197H14.077V8.68802Z" fill="#444444" fill-opacity="0.7"/>
</svg>
