<svg width="16" height="16" viewBox="0 0 16 16" fill="none" xmlns="http://www.w3.org/2000/svg">
<path d="M8 0C3.58386 0 0 3.58386 0 8C0 12.4161 3.58386 16 8 16C12.4161 16 16 12.4161 16 8C16 3.58386 12.4161 0 8 0ZM12.0594 8.39066C12.0594 8.67941 11.8217 8.9172 11.5329 8.9172H8.39066V11.2781C8.39066 11.5669 8.15287 11.8047 7.86412 11.8047C7.57537 11.8047 7.33758 11.5669 7.33758 11.2781V8.9172H4.97665V11.2781C4.97665 11.5669 4.73885 11.8047 4.45011 11.8047C4.16136 11.8047 3.92357 11.5669 3.92357 11.2781V4.72187C3.92357 4.43312 4.16136 4.19533 4.45011 4.19533C4.73885 4.19533 4.97665 4.43312 4.97665 4.72187V7.86412H7.33758V4.72187C7.33758 4.43312 7.57537 4.19533 7.86412 4.19533C8.15287 4.19533 8.39066 4.43312 8.39066 4.72187V7.86412H11.0064V4.72187C11.0064 4.43312 11.2442 4.19533 11.5329 4.19533C11.8217 4.19533 12.0594 4.43312 12.0594 4.72187V8.39066Z" fill="#444444" fill-opacity="0.7"/>
</svg>
