<svg width="14" height="14" viewBox="0 0 14 14" fill="none" xmlns="http://www.w3.org/2000/svg">
<path fill-rule="evenodd" clip-rule="evenodd" d="M3.46064 4.59192H0.5625V13.2996H3.46064V4.59192Z" fill="white"/>
<path fill-rule="evenodd" clip-rule="evenodd" d="M3.65139 1.89837C3.63258 1.04458 3.02203 0.394287 2.0306 0.394287C1.03916 0.394287 0.390991 1.04458 0.390991 1.89837C0.390991 2.73447 1.02 3.40349 1.99298 3.40349H2.0115C3.02203 3.40349 3.65139 2.73447 3.65139 1.89837Z" fill="white"/>
<path fill-rule="evenodd" clip-rule="evenodd" d="M13.9125 8.30691C13.9125 5.63227 12.4827 4.38745 10.5756 4.38745C9.03688 4.38745 8.34796 5.23263 7.96331 5.82553V4.59216H5.06482C5.10302 5.40924 5.06482 13.2999 5.06482 13.2999H7.96331V8.43677C7.96331 8.17652 7.98212 7.91691 8.05875 7.73059C8.26821 7.21067 8.74512 6.67238 9.54579 6.67238C10.5949 6.67238 11.0143 7.47086 11.0143 8.64101V13.2996H13.9123L13.9125 8.30691Z" fill="white"/>
</svg>
