<svg width="13" height="11" viewBox="0 0 13 11" fill="none" xmlns="http://www.w3.org/2000/svg">
<path fill-rule="evenodd" clip-rule="evenodd" d="M6.02109 3.01523L6.04792 3.48502L5.60066 3.42749C3.97263 3.20698 2.55033 2.45916 1.34273 1.20319L0.752342 0.580002L0.600273 1.0402C0.278245 2.06607 0.483985 3.14946 1.15488 3.87811C1.51269 4.28078 1.43218 4.33831 0.814959 4.09862C0.600273 4.02192 0.412423 3.9644 0.394533 3.99316C0.331916 4.06027 0.546602 4.93273 0.716561 5.27789C0.949138 5.75726 1.42324 6.22705 1.94206 6.50509L2.38038 6.7256L1.86155 6.73519C1.36062 6.73519 1.34273 6.74478 1.3964 6.94611C1.5753 7.5693 2.28198 8.23084 3.06916 8.51847L3.62376 8.7198L3.14072 9.0266C2.4251 9.46763 1.58425 9.71691 0.743397 9.73608C0.340861 9.74567 0.0098877 9.78402 0.0098877 9.81278C0.0098877 9.90866 1.10121 10.4456 1.73632 10.6565C3.64165 11.2797 5.9048 11.0112 7.60439 9.94701C8.812 9.18959 10.0196 7.68435 10.5832 6.22705C10.8873 5.45046 11.1914 4.03151 11.1914 3.35079C11.1914 2.90977 11.2183 2.85224 11.7192 2.32493C12.0144 2.01813 12.2917 1.68257 12.3454 1.58669C12.4348 1.40453 12.4259 1.40453 11.9697 1.56752C11.2093 1.85514 11.102 1.81679 11.4777 1.38535C11.755 1.07855 12.086 0.522477 12.086 0.359489C12.086 0.330726 11.9518 0.378664 11.7997 0.464952C11.6387 0.560827 11.2809 0.70464 11.0125 0.790927L10.5295 0.953915L10.0912 0.637527C9.84965 0.464952 9.50973 0.273201 9.33082 0.215676C8.87462 0.081451 8.17689 0.100626 7.76541 0.254026C6.64725 0.685465 5.94058 1.79762 6.02109 3.01523Z" fill="white"/>
</svg>
